# xmcd CD database file
#
# Track frame offsets:
#	150
#	18818
#	65764
#	99690
#	123345
#	156886
#	183355
#	216034
#	238330
#
# Disc length: 3508 seconds
#
# Revision: 0
# Processed by: cddbd v1.4PL0 Copyright (c) Steve Scherf et al.
# Submitted via: CDex 1.51
#
DISCID=7a0db209
DTITLE=Keahi Conjugation - Live at the Atherton
DYEAR=1900
DGENRE=Jazz
TTITLE0=Amazing Grace
TTITLE1=Summertime
TTITLE2=The Boy from Ipanema
TTITLE3=Night and Day
TTITLE4=Unforgettable
TTITLE5=Jersey Bounce
TTITLE6=Eat Daddy
TTITLE7=What a Difference a Day Makes
TTITLE8=Stormy Monday Blues
EXTD=
EXTT0=
EXTT1=
EXTT2=
EXTT3=
EXTT4=
EXTT5=
EXTT6=
EXTT7=
EXTT8=
PLAYORDER=
